[IMG]http://www.shotpix.com/images/75227856759151681438.jpg[/IMG]

General
Complete name                            : Fat Joe Ft. Wiz Khalifa & Teyana Taylor - Ballin' [Music Video] 720p [Sbyky].mp4
Format                                   : MPEG-4
Format profile                           : Base Media / Version 2
Codec ID                                 : mp42
File size                                : 49.4 MiB
Duration                                 : 4mn 5s
Overall bit rate mode                    : Variable
Overall bit rate                         : 1 691 Kbps
Encoded date                             : UTC 2013-05-15 21:44:58
Tagged date                              : UTC 2013-05-15 21:44:58

Video
ID                                       : 1
Format                                   : AVC
Format/Info                              : Advanced Video Codec
Format profile                           : High@L3.1
Format settings, CABAC                   : Yes
Format settings, ReFrames                : 1 frame
Codec ID                                 : avc1
Codec ID/Info                            : Advanced Video Coding
Duration                                 : 4mn 5s
Bit rate                                 : 1 497 Kbps
Maximum bit rate                         : 3 872 Kbps
Width                                    : 1 280 pixels
Height                                   : 720 pixels
Display aspect ratio                     : 16:9
Frame rate mode                          : Constant
Frame rate                               : 29.970 fps
Color space                              : YUV
Chroma subsampling                       : 4:2:0
Bit depth                                : 8 bits
Scan type                                : Progressive
Bits/(Pixel*Frame)                       : 0.054
Stream size                              : 43.7 MiB (88%)
Tagged date                              : UTC 2013-05-15 21:45:01

Audio
ID                                       : 2
Format                                   : AAC
Format/Info                              : Advanced Audio Codec
Format profile                           : LC
Codec ID                                 : 40
Duration                                 : 4mn 5s
Bit rate mode                            : Variable
Bit rate                                 : 192 Kbps
Maximum bit rate                         : 201 Kbps
Channel(s)                               : 2 channels
Channel positions                        : Front: L R
Sampling rate                            : 44.1 KHz
Compression mode                         : Lossy
Stream size                              : 5.61 MiB (11%)
Title                                    : IsoMedia File Produced by Google, 5-11-2011
Encoded date                             : UTC 2013-05-15 21:45:00
Tagged date                              : UTC 2013-05-15 21:45:01

Shared By Sbyky
[IMG]http://www.shotpix.com/images/76014917432015785852.gif[/IMG]
[IMG]http://www.shotpix.com/images/54100788659511547411.gif[/IMG]